HIERARCHY
ROOT Hips
{
  OFFSET 93.8861 94.8037 35.7843
  CHANNELS 6 Xposition Yposition Zposition Zrotation Xrotation Yrotation
  JOINT ToSpine
  {
    OFFSET -2.69724 7.43032 -0.144315
    CHANNELS 3 Zrotation Xrotation Yrotation
    JOINT Spine
    {
      OFFSET -0.0310711 10.7595 1.96963
      CHANNELS 3 Zrotation Xrotation Yrotation
      JOINT Spine1
      {
        OFFSET 13.1342 3.43533 0.764692
        CHANNELS 3 Zrotation Xrotation Yrotation
        JOINT Neck
        {
          OFFSET 29.8703 7.82586 -0.130764
          CHANNELS 3 Zrotation Xrotation Yrotation
          JOINT Head
          {
            OFFSET 9.52751 0.295786 -0.907742
            CHANNELS 3 Zrotation Xrotation Yrotation
            End Site
            {
              OFFSET 16.4037 0.713936 2.7358
            }
          }
        }
        JOINT LeftShoulder
        {
          OFFSET 27.5574 4.95586 2.47156
          CHANNELS 3 Zrotation Xrotation Yrotation
          JOINT LeftArm
          {
            OFFSET 1.20734 -0.998971 20.1238
            CHANNELS 3 Zrotation Xrotation Yrotation
            JOINT LeftForeArm
            {
              OFFSET 26.8049 -0.0536703 -0.155908
              CHANNELS 3 Zrotation Xrotation Yrotation
              JOINT LeftHand
              {
                OFFSET 26.6817 0 0.320147
                CHANNELS 3 Zrotation Xrotation Yrotation
                End Site
                {
                  OFFSET 18.6119 0 0.382219
                }
              }
            }
          }
        }
        JOINT RightShoulder
        {
          OFFSET 27.5927 4.71444 -2.65209
          CHANNELS 3 Zrotation Xrotation Yrotation
          JOINT RightArm
          {
            OFFSET 2.83739 -1.17114 -18.7564
            CHANNELS 3 Zrotation Xrotation Yrotation
            JOINT RightForeArm
            {
              OFFSET 28.839 -0.0548439 1.22491
              CHANNELS 3 Zrotation Xrotation Yrotation
              JOINT RightHand
              {
                OFFSET 26.5114 0 -0.101894
                CHANNELS 3 Zrotation Xrotation Yrotation
                End Site
                {
                  OFFSET 18.2168 0 0
                }
              }
            }
          }
        }
      }
    }
  }
  JOINT LeftUpLeg
  {
    OFFSET -4.76168 -1.9167 -10.2353
    CHANNELS 3 Zrotation Xrotation Yrotation
    JOINT LeftLeg
    {
      OFFSET 2.55951 -42.0585 -8.02213
      CHANNELS 3 Zrotation Xrotation Yrotation
      JOINT LeftFoot
      {
        OFFSET 3.16357 -42.5282 -3.95426
        CHANNELS 3 Zrotation Xrotation Yrotation
        JOINT LeftToeBase
        {
          OFFSET 0.346054 -6.02161 12.8035
          CHANNELS 3 Zrotation Xrotation Yrotation
          End Site
          {
            OFFSET 0.134235 -1.35082 5.13018
          }
        }
      }
    }
  }
  JOINT RightUpLeg
  {
    OFFSET -4.94151 -1.41743 10.6446
    CHANNELS 3 Zrotation Xrotation Yrotation
    JOINT RightLeg
    {
      OFFSET -2.56294 -42.0364 -7.94377
      CHANNELS 3 Zrotation Xrotation Yrotation
      JOINT RightFoot
      {
        OFFSET -3.0952 -42.555 -4.02241
        CHANNELS 3 Zrotation Xrotation Yrotation
        JOINT RightToeBase
        {
          OFFSET -0.0828122 -6.13587 12.8035
          CHANNELS 3 Zrotation Xrotation Yrotation
          End Site
          {
            OFFSET -0.131328 -1.35082 5.13018
          }
        }
      }
    }
  }
}
MOTION
Frames:	11
Frame Time:	0.0333333
101.062 89.878 62.2256 65.9819 3.84856 -6.38194 -70.1915 0 88.8779 136.951 68.577 -37.6136 -6.19939 23.5801 2.45387 -126.62 23.9341 -179.159 -168.319 62.0912 -158.364 0.639322 -12.8183 -25.6312 -80.3932 38.9576 -123.546 -1.99449 0.727493 -110.556 0.420957 0.000575345 0.35866 0.250399 9.39466 10.0442 -121.615 -29.1172 94.6199 9.29326 -3.81374 67.7839 0.58676 0.000331068 0.0646653 -34.1734 14.4555 99.325 -3.67028 44.3291 -13.1045 -7.34872 -6.55186 -0.0768861 4.371 -11.7126 14.6179 -23.2958 -25.8869 93.1001 2.39303 46.4776 0.165186 -0.967566 0.0122774 0.269089 1.71698 -16.2482 5.35441 
102.183 89.871 64.8077 65.7095 3.51032 -4.09971 -70.1915 0 88.8779 124.717 68.3808 -29.241 -2.41185 19.8732 5.34519 -124.368 23.4441 -179.976 -171.359 61.6228 -155.207 0.666021 -12.692 -25.4961 -83.3492 40.2362 -122.052 0.461986 -0.239162 -111.3 0.420957 0.000575345 0.35866 -0.48858 8.56762 19.2277 -117.639 -31.5976 95.6512 9.63712 -0.474687 87.2783 0.58676 0.000331068 0.0646653 -35.4573 16.6703 97.014 -3.63598 44.571 -12.1301 -7.19568 -7.36166 -0.203227 4.02777 -11.0073 13.1679 -23.3869 -23.4429 90.812 2.43148 49.6233 -2.08733 -2.31295 -0.886314 0.510092 2.04978 -17.4041 15.3532 
103.097 89.9293 66.9787 66.3655 2.53649 -3.99927 -70.1915 0 88.8779 117.598 67.7257 -26.3992 -0.407346 18.1071 5.54489 -121.37 21.9443 177.614 -170.687 60.781 -156.06 0.92574 -11.0795 -23.1069 -82.8981 41.588 -124.664 3.58899 -1.46816 -110.843 0.420957 0.000575345 0.35866 -1.14208 7.94786 28.3594 -115.277 -32.0357 93.8497 12.5488 3.26314 103.881 0.58676 0.000331068 0.0646653 -38.7955 18.6141 98.6399 -3.4016 43.1026 -11.5692 -7.16689 -8.10565 -0.311673 3.36375 -9.97596 13.2825 -24.2617 -22.3191 88.7498 2.79703 51.104 -1.05768 -3.63333 -3.47162 0.750058 1.97022 -17.1551 12.9697 
103.763 90.0702 68.404 66.7255 0.303311 -4.09355 -70.1915 0 88.8779 116.627 67.4735 -26.9481 -0.655374 18.1427 4.63885 -118.115 21.0795 176.486 -169.507 60.2378 -156.569 0.984242 -10.6992 -21.4035 -83.0203 43.3867 -124.576 5.38061 -2.23331 -111.311 0.420957 0.000575345 0.35866 -1.33372 7.34652 32.461 -114.515 -31.5543 91.1905 12.5369 6.54706 116.74 0.58676 0.000331068 0.0646653 -42.0023 20.0761 100.211 -3.06673 40.4723 -10.894 -6.78215 -7.54377 -0.254429 3.41722 -10.2623 14.576 -25.2058 -20.5764 86.6169 3.06266 50.7987 1.04862 -5.20489 -5.90565 1.02079 1.61083 -15.1693 7.48216 
104.522 90.1847 69.2213 66.839 -1.84325 -3.55013 -70.1915 0 88.8779 112.748 67.9704 -23.2435 0.679683 18.1442 4.15303 -116.18 20.7297 176.68 -169.096 59.8217 -156.396 1.03058 -10.3011 -21.3442 -84.2992 44.1469 -124.503 8.02251 -3.23595 -110.819 0.420957 0.000575345 0.35866 -1.14714 6.88405 31.133 -115.445 -32.8091 91.2979 12.5528 8.9406 124.46 0.58676 0.000331068 0.0646653 -44.0033 20.8986 98.6463 -2.61301 38.6495 -8.03297 -7.17874 -7.78462 -0.263843 3.11156 -9.74484 14.2635 -25.8401 -18.1249 86.4916 3.1631 50.8765 1.56353 -2.54836 -7.3892 0.888949 0.964897 -11.5587 6.99616 
105.159 90.1952 69.5451 66.6181 -3.3281 -3.20949 -70.1915 0 88.8779 107.483 68.5283 -17.9163 1.93769 18.1616 3.56599 -114.486 20.2485 176.041 -167.787 59.5805 -157.63 1.01748 -10.4113 -21.8016 -85.5495 44.0727 -124.684 10.6629 -4.0739 -109.766 0.420957 0.000575345 0.35866 -0.91922 6.46775 28.706 -117.399 -33.7358 93.5616 12.6614 10.1169 127.559 0.58676 0.000331068 0.0646653 -44.9552 20.5631 95.8804 -2.16704 37.8386 -4.52903 -7.11516 -7.32077 -0.203526 3.6911 -10.5203 13.4294 -25.981 -16.3903 86.6399 3.35834 50.9478 3.02502 -3.63268 -6.90982 0.955168 1.58286 -13.3588 3.28984 
105.648 90.3593 69.6004 66.919 -4.78345 -3.37493 -70.1915 0 88.8779 105.162 68.6947 -15.9459 2.12655 18.2886 3.0048 -112.684 19.7415 175.488 -167.222 59.2957 -157.706 1.03312 -10.2943 -21.4522 -85.3981 44.4412 -124.153 10.6472 -4.08953 -109.863 0.420957 0.000575345 0.35866 -0.80283 6.62283 26.4648 -119.204 -33.8305 95.8746 13.3143 10.7969 127.912 0.58676 0.000331068 0.0646653 -46.7437 20.2711 95.2868 -1.79213 36.749 -1.74933 -6.95646 -7.03514 -0.171801 3.61404 -10.3291 12.9278 -27.3294 -14.9991 86.9873 3.40965 49.3174 4.84075 -5.92932 -6.4852 1.08279 1.92247 -15.2279 -3.31803 
106.045 90.5839 69.616 67.0373 -5.78818 -3.68948 -70.1915 0 88.8779 103.104 68.979 -14.3419 1.7636 18.6327 2.38347 -111.063 19.0328 174.116 -165.979 59.1612 -158.748 1.06639 -9.98482 -20.8578 -83.7589 44.4554 -124.819 10.096 -3.91556 -110.057 0.420957 0.000575345 0.35866 -0.724757 6.77753 24.9642 -119.792 -33.9668 97.5126 13.6955 11.1168 127.9 0.58676 0.000331068 0.0646653 -48.3003 20.2284 96.1132 -1.43542 35.3568 0.513485 -7.02938 -6.74911 -0.127357 3.26112 -9.4149 11.0033 -28.2253 -13.7133 88.4263 3.2805 48.1263 5.31503 -5.89192 -6.46243 1.08396 2.06487 -15.0633 -6.63843 
106.347 90.8369 69.4286 67.1415 -6.40355 -3.69374 -70.1915 0 88.8779 100.892 69.3332 -11.8596 2.29833 19.051 1.50635 -111.001 18.7591 173.368 -166.001 59.1861 -159.091 1.06234 -10.0247 -20.894 -82.6381 44.1592 -125.559 10.2666 -3.99119 -110.098 0.420957 0.000575345 0.35866 -0.632654 6.99926 23.0996 -119.158 -34.9571 98.1202 14.003 11.4147 127.985 0.58676 0.000331068 0.0646653 -49.4596 20.2031 96.6345 -1.2643 34.289 1.53429 -6.56472 -6.28773 -0.0954388 3.28426 -9.22183 9.70915 -28.9743 -12.877 89.2843 3.20503 47.2171 5.71465 -5.89239 -5.78593 1.0625 2.10593 -15.4347 -8.15165 
106.616 91.1077 68.9809 67.448 -6.10339 -3.33569 -70.1915 0 88.8779 98.5451 69.5249 -9.43112 3.2007 19.1333 1.24385 -111.084 18.7297 172.66 -166.145 59.4367 -159.128 1.03889 -10.2359 -21.0843 -81.3842 43.8369 -126.581 10.7163 -4.11321 -109.849 0.420957 0.000575345 0.35866 -0.582126 7.1901 22.0707 -118.794 -35.3255 97.1046 15.1299 12.2499 127.69 0.58676 0.000331068 0.0646653 -50.0761 19.946 96.4729 -1.28457 33.7371 1.07697 -6.18779 -6.16565 -0.107963 3.34429 -9.42488 10.2323 -30.461 -13.4148 88.5324 2.94862 45.5508 5.39153 -4.29819 -6.46778 0.966261 1.89828 -13.3016 -5.84854 
106.765 91.2225 68.4519 67.6302 -5.17777 -2.88943 -70.1915 0 88.8779 95.7275 69.6727 -7.30692 3.55532 18.986 1.84052 -110.417 18.4535 170.889 -164.503 59.8864 -160.682 1.02254 -10.3765 -21.1758 -79.796 43.2913 -127.968 11.12 -4.17004 -109.409 0.420957 0.000575345 0.35866 -0.640372 7.20891 22.8933 -118.624 -34.4053 95.9606 15.0841 12.143 127.54 0.58676 0.000331068 0.0646653 -49.7899 19.6931 95.7514 -1.56479 34.1591 -1.10518 -5.59007 -5.98316 -0.129939 4.12889 -10.9733 11.7623 -31.6924 -14.2118 87.9803 2.70337 44.2795 4.56868 -1.92377 -7.06879 0.825364 1.58977 -11.7398 -2.78994 
